<?xml version="1.0"?>
<svg xmlns="http://www.w3.org/2000/svg" viewBox="0 0 512 512" width="512" height="512"><g id="Fill_out_line" data-name="Fill out line"><path d="M304,152v40H192V152a48.78844,48.78844,0,0,1,39.22-47.84009L232,104h32l.78.15991A48.78844,48.78844,0,0,1,304,152Z" style="fill:#e44b4d"/><path d="M288,56h0a16,16,0,0,1,16,16v0a16,16,0,0,1-16,16H208a16,16,0,0,1-16-16v0a16,16,0,0,1,16-16h80Z" style="fill:#f2c194"/><path d="M280,36V72a32.001,32.001,0,0,1-16,27.72V104a16,16,0,0,1-16,16h0a16,16,0,0,1-16-16V99.72A32.01294,32.01294,0,0,1,216,72V36Z" style="fill:#f4ceaf"/><path d="M264,36v0a20,20,0,0,1-20,20H208V36a12,12,0,0,1,12-12h32.00007A12,12,0,0,1,264,36Z" style="fill:#ad7d4d"/><path d="M288,36V56h-4a20,20,0,0,1-20-20v0a12,12,0,0,1,12-12h0A12,12,0,0,1,288,36Z" style="fill:#ad7d4d"/><path d="M416,152v40H304V152a48.78844,48.78844,0,0,1,39.22-47.84009L344,104h32l.78.15991A48.78844,48.78844,0,0,1,416,152Z" style="fill:#349966"/><path d="M400,56h0a16,16,0,0,1,16,16v0a16,16,0,0,1-16,16H320a16,16,0,0,1-16-16v0a16,16,0,0,1,16-16h80Z" style="fill:#f2c194"/><path d="M392,36V72a32.001,32.001,0,0,1-16,27.72V104a16,16,0,0,1-16,16h0a16,16,0,0,1-16-16V99.72A32.01294,32.01294,0,0,1,328,72V36Z" style="fill:#f4ceaf"/><path d="M376,36v0a20,20,0,0,1-20,20H320V36a12,12,0,0,1,12-12h32.00007A12,12,0,0,1,376,36Z" style="fill:#ad7d4d"/><path d="M400,36V56h-4a20,20,0,0,1-20-20v0a12,12,0,0,1,12-12h0A12,12,0,0,1,400,36Z" style="fill:#ad7d4d"/><path d="M192,152v40H80V152a48.78844,48.78844,0,0,1,39.22-47.84009L120,104h32l.78.15991A48.78844,48.78844,0,0,1,192,152Z" style="fill:#8acce7"/><path d="M176,56h0a16,16,0,0,1,16,16v0a16,16,0,0,1-16,16H96A16,16,0,0,1,80,72v0A16,16,0,0,1,96,56h80Z" style="fill:#f2c194"/><path d="M168,36V72a32.001,32.001,0,0,1-16,27.72V104a16,16,0,0,1-16,16h0a16,16,0,0,1-16-16V99.72A32.01294,32.01294,0,0,1,104,72V36Z" style="fill:#f4ceaf"/><path d="M152,36v0a20,20,0,0,1-20,20H96V36a12,12,0,0,1,12-12H140A12,12,0,0,1,152,36Z" style="fill:#ad7d4d"/><path d="M176,36V56h-4a20,20,0,0,1-20-20v0a12,12,0,0,1,12-12h0A12,12,0,0,1,176,36Z" style="fill:#ad7d4d"/><path d="M344,168h0a16,16,0,0,1,16,16v0a16,16,0,0,1-16,16H264a16,16,0,0,1-16-16v0a16,16,0,0,1,16-16h80Z" style="fill:#f2c194"/><path d="M248,264v0a48.79212,48.79212,0,0,1,39.22319-47.8446L288,216h32l.77681.15536A48.79212,48.79212,0,0,1,360,264v0Z" style="fill:#395166"/><path d="M336,148v36a32.001,32.001,0,0,1-16,27.72V216a16,16,0,0,1-16,16h0a16,16,0,0,1-16-16V211.72A32.01294,32.01294,0,0,1,272,184V148Z" style="fill:#f4ceaf"/><path d="M320,148v0a20,20,0,0,1-20,20H264V148a12,12,0,0,1,12-12h32.00007A12,12,0,0,1,320,148Z" style="fill:#ad7d4d"/><path d="M344,148v20h-4a20,20,0,0,1-20-20v0a12,12,0,0,1,12-12h0A12,12,0,0,1,344,148Z" style="fill:#ad7d4d"/><path d="M456,168h0a16,16,0,0,1,16,16v0a16,16,0,0,1-16,16H376a16,16,0,0,1-16-16v0a16,16,0,0,1,16-16h80Z" style="fill:#f2c194"/><path d="M360,264v0a48.79212,48.79212,0,0,1,39.22319-47.8446L400,216h32l.77681.15536A48.79212,48.79212,0,0,1,472,264v0Z" style="fill:#eebe33"/><path d="M448,148v36a32.001,32.001,0,0,1-16,27.72V216a16,16,0,0,1-16,16h0a16,16,0,0,1-16-16V211.72A32.01294,32.01294,0,0,1,384,184V148Z" style="fill:#f4ceaf"/><path d="M432,148v0a20,20,0,0,1-20,20H376V148a12,12,0,0,1,12-12h32.00007A12,12,0,0,1,432,148Z" style="fill:#ad7d4d"/><path d="M456,148v20h-4a20,20,0,0,1-20-20v0a12,12,0,0,1,12-12h0A12,12,0,0,1,456,148Z" style="fill:#ad7d4d"/><path d="M120,168h0a16,16,0,0,1,16,16v0a16,16,0,0,1-16,16H40a16,16,0,0,1-16-16v0a16,16,0,0,1,16-16h80Z" style="fill:#f2c194"/><path d="M24,264v0a48.79212,48.79212,0,0,1,39.22319-47.8446L64,216H96l.77681.15536A48.79212,48.79212,0,0,1,136,264v0Z" style="fill:#eebe33"/><path d="M112,148v36a32.001,32.001,0,0,1-16,27.72V216a16,16,0,0,1-16,16h0a16,16,0,0,1-16-16V211.72A32.01294,32.01294,0,0,1,48,184V148Z" style="fill:#f4ceaf"/><path d="M96,148v0a20,20,0,0,1-20,20H40V148a12,12,0,0,1,12-12H84.00005A12,12,0,0,1,96,148Z" style="fill:#ad7d4d"/><path d="M120,148v20h-4a20,20,0,0,1-20-20v0a12,12,0,0,1,12-12h0A12,12,0,0,1,120,148Z" style="fill:#ad7d4d"/><path d="M232,168h0a16,16,0,0,1,16,16v0a16,16,0,0,1-16,16H152a16,16,0,0,1-16-16v0a16,16,0,0,1,16-16h80Z" style="fill:#f2c194"/><path d="M136,264v0a48.79212,48.79212,0,0,1,39.22319-47.8446L176,216h32l.77681.15536A48.79212,48.79212,0,0,1,248,264v0Z" style="fill:#349966"/><path d="M224,148v36a32.001,32.001,0,0,1-16,27.72V216a16,16,0,0,1-16,16h0a16,16,0,0,1-16-16V211.72A32.01294,32.01294,0,0,1,160,184V148Z" style="fill:#f4ceaf"/><path d="M208,148v0a20,20,0,0,1-20,20H152V148a12,12,0,0,1,12-12H196A12,12,0,0,1,208,148Z" style="fill:#ad7d4d"/><path d="M232,148v20h-4a20,20,0,0,1-20-20v0a12,12,0,0,1,12-12h0A12,12,0,0,1,232,148Z" style="fill:#ad7d4d"/><rect x="359.02944" y="379.71573" width="33.94113" height="56.56854" transform="translate(-178.37172 385.37258) rotate(-45)" style="fill:#c4d4e0"/><circle cx="280" cy="312" r="128" style="fill:#379ec3"/><circle cx="280" cy="312" r="104" style="fill:#8acce7"/><path d="M408,496l-28.68627-28.68627a16,16,0,0,1,0-22.62742l33.37258-33.37258a16,16,0,0,1,22.62742,0L496,472v24Z" style="fill:#395166"/><path d="M320,272h0a16,16,0,0,1,16,16v0a16,16,0,0,1-16,16H240a16,16,0,0,1-16-16v0a16,16,0,0,1,16-16h80Z" style="fill:#f2c194"/><path d="M224,368v0a48.79212,48.79212,0,0,1,39.22319-47.8446L264,320h32l.77681.15536A48.79212,48.79212,0,0,1,336,368v0Z" style="fill:#eebe33"/><path d="M312,252v36a32.001,32.001,0,0,1-16,27.72V320a16,16,0,0,1-16,16h0a16,16,0,0,1-16-16V315.72A32.01294,32.01294,0,0,1,248,288V252Z" style="fill:#f4ceaf"/><path d="M296,252v0a20,20,0,0,1-20,20H240V252a12,12,0,0,1,12-12h32.00007A12,12,0,0,1,296,252Z" style="fill:#ad7d4d"/><path d="M320,252v20h-4a20,20,0,0,1-20-20v0a12,12,0,0,1,12-12h0A12,12,0,0,1,320,252Z" style="fill:#ad7d4d"/><path d="M80,240a24.02849,24.02849,0,0,0,21.84082-14.07007A40.92719,40.92719,0,0,1,128,264h16a40.89676,40.89676,0,0,1,13.37891-30.21l-10.75782-11.84375a56.74053,56.74053,0,0,0-10.63537,13.06543,57.038,57.038,0,0,0-27.01966-23.45117A40.15859,40.15859,0,0,0,112,207.96411V208h8a23.901,23.901,0,0,0,16.00012-6.13086A23.90081,23.90081,0,0,0,152,208h12.27783a8,8,0,0,0,6.92578-12.00391A23.99312,23.99312,0,0,1,168,184v-8h20a27.91194,27.91194,0,0,0,20-8.43066A27.91194,27.91194,0,0,0,228,176h4a8.00008,8.00008,0,0,0,8-8V148a19.96208,19.96208,0,0,0-32-15.96191A19.87025,19.87025,0,0,0,196,128H164a20.0226,20.0226,0,0,0-20,20v13.37622a24.01715,24.01715,0,0,0-7.99988,4.75464A24.01812,24.01812,0,0,0,128,161.37622V148a19.96208,19.96208,0,0,0-32-15.96191A19.87025,19.87025,0,0,0,84,128H52a20.0226,20.0226,0,0,0-20,20v13.37622A23.99787,23.99787,0,0,0,40,208h7.99353a40.48313,40.48313,0,0,0,3.03149,3.564A56.97749,56.97749,0,0,0,16,264H32a40.92757,40.92757,0,0,1,26.15894-38.07031A24.02744,24.02744,0,0,0,80,240Zm8-28.28027V216a8,8,0,0,1-16,0v-4.28027a8.00068,8.00068,0,0,0-4.00732-6.93262A24.0126,24.0126,0,0,1,56,184v-8H76a27.91194,27.91194,0,0,0,20-8.43066,28.13,28.13,0,0,0,8,5.72363V184a24.09682,24.09682,0,0,1-12.00537,20.79492A7.99987,7.99987,0,0,0,88,211.71973ZM120,192h-.8313A39.69152,39.69152,0,0,0,120,184v-8a8,8,0,0,1,0,16Zm100-48a4.00427,4.00427,0,0,1,4,4v11.31445A12.02035,12.02035,0,0,1,216,148,4.00427,4.00427,0,0,1,220,144Zm-60,4a4.00427,4.00427,0,0,1,4-4h32a4.00427,4.00427,0,0,1,4,4,12.01343,12.01343,0,0,1-12,12H160Zm-8,28v8a40.11631,40.11631,0,0,0,.80615,8H152a8,8,0,0,1,0-16Zm-44-32a4.00427,4.00427,0,0,1,4,4v11.31445A12.02035,12.02035,0,0,1,104,148,4.00427,4.00427,0,0,1,108,144Zm-60,4a4.00427,4.00427,0,0,1,4-4H84a4.00427,4.00427,0,0,1,4,4,12.01343,12.01343,0,0,1-12,12H48Zm-8,44a8,8,0,0,1,0-16v8a40.42171,40.42171,0,0,0,.79785,8Z"/><rect x="48" y="248" width="16" height="16"/><rect x="96" y="248" width="16" height="16"/><rect x="432" y="248" width="16" height="16"/><path d="M420,128H388a20.0226,20.0226,0,0,0-20,20v13.37622a24.01639,24.01639,0,0,0-8,4.75464,24.01639,24.01639,0,0,0-8-4.75464V148a19.96208,19.96208,0,0,0-32-15.96191A19.87025,19.87025,0,0,0,308,128H276a20.0226,20.0226,0,0,0-20,20v12h16V148a4.00427,4.00427,0,0,1,4-4h32a4.00427,4.00427,0,0,1,4,4,28.03146,28.03146,0,0,0,28,28h4a8.00917,8.00917,0,0,1,8,8h16a8.00917,8.00917,0,0,1,8-8v8a40.03614,40.03614,0,0,0,16,32.00781,23.99478,23.99478,0,0,0,45.84082,9.92212A40.92719,40.92719,0,0,1,464,264h16a56.97726,56.97726,0,0,0-35.03394-52.43945A40.15859,40.15859,0,0,0,448,207.96411V208h8a23.99787,23.99787,0,0,0,8-46.62378V148a19.96208,19.96208,0,0,0-32-15.96191A19.87025,19.87025,0,0,0,420,128Zm-84,31.31445A12.02035,12.02035,0,0,1,328,148a4,4,0,0,1,8,0ZM384,148a4.00427,4.00427,0,0,1,4-4h32a4.00427,4.00427,0,0,1,4,4,12.01343,12.01343,0,0,1-12,12H384Zm40,63.71973V216a8,8,0,0,1-16,0v-4.28027a8.00068,8.00068,0,0,0-4.00732-6.93262A24.0126,24.0126,0,0,1,392,184v-8h20a27.91194,27.91194,0,0,0,20-8.43066,28.13,28.13,0,0,0,8,5.72363V184a24.09682,24.09682,0,0,1-12.00537,20.79492A7.99987,7.99987,0,0,0,424,211.71973ZM456,192h-.8313A39.69152,39.69152,0,0,0,456,184v-8a8,8,0,0,1,0,16Zm-12-48a4.00427,4.00427,0,0,1,4,4v11.31445A12.02035,12.02035,0,0,1,440,148,4.00427,4.00427,0,0,1,444,144Z"/><path d="M96,96h7.99353a40.45677,40.45677,0,0,0,3.02112,3.55322,56.69086,56.69086,0,0,0-16.39356,10.39307L101.37891,121.79a40.69637,40.69637,0,0,1,12.78637-7.84619,23.98683,23.98683,0,0,0,43.66919,0A40.6964,40.6964,0,0,1,170.62109,121.79l10.75782-11.84375a56.68566,56.68566,0,0,0-16.4021-10.39649A40.1985,40.1985,0,0,0,168,95.96411V96h8a23.89948,23.89948,0,0,0,16-6.13086A23.89948,23.89948,0,0,0,208,96h7.99353a40.45677,40.45677,0,0,0,3.02112,3.55322,56.69086,56.69086,0,0,0-16.39356,10.39307L213.37891,121.79a40.69637,40.69637,0,0,1,12.78637-7.84619,23.98683,23.98683,0,0,0,43.66919,0A40.6964,40.6964,0,0,1,282.62109,121.79l10.75782-11.84375a56.68566,56.68566,0,0,0-16.4021-10.39649A40.1985,40.1985,0,0,0,280,95.96411V96h8a23.89948,23.89948,0,0,0,16-6.13086A23.89948,23.89948,0,0,0,320,96h7.99353a40.45677,40.45677,0,0,0,3.02112,3.55322,56.69086,56.69086,0,0,0-16.39356,10.39307L325.37891,121.79a40.69637,40.69637,0,0,1,12.78637-7.84619,23.98683,23.98683,0,0,0,43.66919,0A40.6964,40.6964,0,0,1,394.62109,121.79l10.75782-11.84375a56.68566,56.68566,0,0,0-16.4021-10.39649A40.1985,40.1985,0,0,0,392,95.96411V96h8a23.99787,23.99787,0,0,0,8-46.62378V36a19.96208,19.96208,0,0,0-32-15.96191A19.87025,19.87025,0,0,0,364,16H332a20.0226,20.0226,0,0,0-20,20V49.37622a24.01639,24.01639,0,0,0-8,4.75464,24.01639,24.01639,0,0,0-8-4.75464V36a19.96208,19.96208,0,0,0-32-15.96191A19.87025,19.87025,0,0,0,252,16H220a20.0226,20.0226,0,0,0-20,20V49.37622a24.01639,24.01639,0,0,0-8,4.75464,24.01639,24.01639,0,0,0-8-4.75464V36a19.96208,19.96208,0,0,0-32-15.96191A19.87025,19.87025,0,0,0,140,16H108A20.0226,20.0226,0,0,0,88,36V49.37622A23.99787,23.99787,0,0,0,96,96Zm48,3.71973V104a8,8,0,0,1-16,0V99.71973a8.00068,8.00068,0,0,0-4.00732-6.93262A24.0126,24.0126,0,0,1,112,72V64h20a27.91194,27.91194,0,0,0,20-8.43066,28.13,28.13,0,0,0,8,5.72363V72a24.09682,24.09682,0,0,1-12.00537,20.79492A7.99987,7.99987,0,0,0,144,99.71973ZM176,80h-.8313A39.69152,39.69152,0,0,0,176,72V64a8,8,0,0,1,0,16Zm80,19.71973V104a8,8,0,0,1-16,0V99.71973a8.00068,8.00068,0,0,0-4.00732-6.93262A24.0126,24.0126,0,0,1,224,72V64h20a27.91194,27.91194,0,0,0,20-8.43066,28.13,28.13,0,0,0,8,5.72363V72a24.09682,24.09682,0,0,1-12.00537,20.79492A7.99987,7.99987,0,0,0,256,99.71973ZM288,80h-.8313A39.69152,39.69152,0,0,0,288,72V64a8,8,0,0,1,0,16Zm80,19.71973V104a8,8,0,0,1-16,0V99.71973a8.00068,8.00068,0,0,0-4.00732-6.93262A24.0126,24.0126,0,0,1,336,72V64h20a27.91194,27.91194,0,0,0,20-8.43066,28.13,28.13,0,0,0,8,5.72363V72a24.09682,24.09682,0,0,1-12.00537,20.79492A7.99987,7.99987,0,0,0,368,99.71973ZM400,80h-.8313A39.69152,39.69152,0,0,0,400,72V64a8,8,0,0,1,0,16ZM388,32a4.00427,4.00427,0,0,1,4,4V47.31445A12.02035,12.02035,0,0,1,384,36,4.00427,4.00427,0,0,1,388,32Zm-60,4a4.00427,4.00427,0,0,1,4-4h32a4.00427,4.00427,0,0,1,4,4,12.01343,12.01343,0,0,1-12,12H328Zm-8,28v8a40.42171,40.42171,0,0,0,.79785,8H320a8,8,0,0,1,0-16ZM276,32a4.00427,4.00427,0,0,1,4,4V47.31445A12.02035,12.02035,0,0,1,272,36,4.00427,4.00427,0,0,1,276,32Zm-60,4a4.00427,4.00427,0,0,1,4-4h32a4.00427,4.00427,0,0,1,4,4,12.01343,12.01343,0,0,1-12,12H216Zm-8,28v8a40.42171,40.42171,0,0,0,.79785,8H208a8,8,0,0,1,0-16ZM164,32a4.00427,4.00427,0,0,1,4,4V47.31445A12.02035,12.02035,0,0,1,160,36,4.00427,4.00427,0,0,1,164,32Zm-60,4a4.00427,4.00427,0,0,1,4-4h32a4.00427,4.00427,0,0,1,4,4,12.01343,12.01343,0,0,1-12,12H104ZM96,64v8a40.42171,40.42171,0,0,0,.79785,8H96a8,8,0,0,1,0-16Z"/><path d="M320,312a23.99787,23.99787,0,0,0,8-46.62378V252a19.96208,19.96208,0,0,0-32-15.96191A19.87025,19.87025,0,0,0,284,232H252a20.0226,20.0226,0,0,0-20,20v13.37622A23.99787,23.99787,0,0,0,240,312h7.99353a40.48313,40.48313,0,0,0,3.03149,3.564A56.97749,56.97749,0,0,0,216,368h16a40.92757,40.92757,0,0,1,26.15894-38.07031,23.98677,23.98677,0,0,0,43.68188.00024A40.92719,40.92719,0,0,1,328,368h16a56.97726,56.97726,0,0,0-35.03394-52.43945A40.15859,40.15859,0,0,0,312,311.96411V312Zm0-16h-.8313A39.69152,39.69152,0,0,0,320,288v-8a8,8,0,0,1,0,16Zm-12-48a4.00427,4.00427,0,0,1,4,4v11.31445A12.02035,12.02035,0,0,1,304,252,4.00427,4.00427,0,0,1,308,248Zm-60,4a4.00427,4.00427,0,0,1,4-4h32a4.00427,4.00427,0,0,1,4,4,12.01343,12.01343,0,0,1-12,12H248Zm-8,44a8,8,0,0,1,0-16v8a40.42171,40.42171,0,0,0,.79785,8Zm48,19.71973V320a8,8,0,0,1-16,0v-4.28027a8.00068,8.00068,0,0,0-4.00732-6.93262A24.0126,24.0126,0,0,1,256,288v-8h20a27.91194,27.91194,0,0,0,20-8.43066,28.13,28.13,0,0,0,8,5.72363V288a24.09682,24.09682,0,0,1-12.00537,20.79492A7.99987,7.99987,0,0,0,288,315.71973Z"/><rect x="248" y="352" width="16" height="16"/><rect x="296" y="352" width="16" height="16"/><path d="M411.69629,277.999A136.004,136.004,0,0,0,280,176c-74.99072,0-136,61.00977-136,136,0,2.8291.08838,5.6875.26221,8.49512l15.96972-.99024C160.07812,317.02539,160,314.5,160,312a120.00864,120.00864,0,0,1,236.20508-29.999Z"/><path d="M190.13135,414l10.584-12a120.04917,120.04917,0,0,1-28.61572-37.51172l-14.376,7.02344A135.9792,135.9792,0,0,0,190.13135,414Z"/><path d="M349.98975,399.44336a112.49917,112.49917,0,0,0,39.01318-61.60449l-15.57129-3.67774a96.42245,96.42245,0,0,1-33.44726,52.7959A94.95058,94.95058,0,0,1,280,408a96.521,96.521,0,0,1-22.16064-2.56836L254.16064,421.002a112.22516,112.22516,0,0,0,95.82911-21.55859Z"/><path d="M220.92725,387.67871a96.21875,96.21875,0,0,1-22.16309-24.5l-13.5293,8.543a112.2,112.2,0,0,0,25.83789,28.5625Z"/><path d="M373.43164,289.83887l15.57129-3.67774A112.01354,112.01354,0,0,0,168,312c0,2.86914.10986,5.76562.32617,8.60742l15.9541-1.21484C184.09424,316.95215,184,314.46582,184,312a96.10874,96.10874,0,0,1,96-96,94.95058,94.95058,0,0,1,59.98438,21.043A96.42245,96.42245,0,0,1,373.43164,289.83887Z"/><path d="M408.04919,404.73535l-15.87341-15.87353a135.07883,135.07883,0,0,0,22.76709-59.86768l-15.876-1.98828a120.0402,120.0402,0,0,1-156.561,98.99707l-5.01172,15.19531a135.86322,135.86322,0,0,0,119.34033-17.0498l15.90076,15.90088a24.01019,24.01019,0,0,0,.92151,32.92138l36.68652,36.68653,11.31348-11.31446-36.68653-36.68652a8.00771,8.00771,0,0,1,0-11.3125l4.68653-4.68652,24-24,4.68652-4.68653a8.00889,8.00889,0,0,1,11.31348,0l52.68652,52.68653,11.31348-11.31446-52.68653-52.68652A24.00922,24.00922,0,0,0,408.04919,404.73535Zm-25.7799-3.1521,14.417,14.41651-12.68652,12.68652L369.57434,414.2605A136.99529,136.99529,0,0,0,382.26929,401.58325Z"/><path d="M396.42236,296.84473l-48,24,7.15528,14.31054L401.88867,312H496V296H400A7.99583,7.99583,0,0,0,396.42236,296.84473Z"/><rect x="432" y="272" width="32" height="16"/><rect x="480" y="272" width="16" height="16"/><rect x="72" y="336" width="136" height="16"/><rect x="72" y="312" width="32" height="16"/><rect x="112" y="312" width="16" height="16"/><path d="M242.34326,386.34277,148.686,480H48v16H152a8.00035,8.00035,0,0,0,5.65674-2.34277l96-96Z"/><rect x="48" y="456" width="48" height="16"/><rect x="112" y="456" width="16" height="16"/><rect x="48" y="432" width="32" height="16"/><rect x="96" y="432" width="32" height="16"/></g></svg>
