<svg id="Layer_1" enable-background="new 0 0 510 510" height="512" viewBox="0 0 510 510" width="512" xmlns="http://www.w3.org/2000/svg"><g><path d="m26.459 401.646h67.082v29.999h-67.082z" fill="#00337a" transform="matrix(.447 -.894 .894 .447 -339.492 283.982)"/><path d="m435 383.105h29.999v67.082h-29.999z" fill="#002659" transform="matrix(.894 -.447 .447 .894 -138.822 245.233)"/><path d="m510 56.646v345h-120l-30-140 30-205z" fill="#efe2de"/><path d="m375 71.646v315h-180l-25-160 25-155z" fill="#002659"/><path d="m15 71.646h180v315h-180z" fill="#00337a"/><path d="m435 101.646h30v30h-30z" fill="#00429b"/><path d="m435 161.646h30v30h-30z" fill="#00429b"/><path d="m60 311.646h60v30h-60z" fill="#fff5f5"/><path d="m225 311.646v30h-30l-9.375-15 9.375-15z" fill="#efe2de"/><path d="m165 311.646h30v30h-30z" fill="#fff5f5"/><path d="m270 311.646h60v30h-60z" fill="#efe2de"/><path d="m60 176.646h90v105h-90z" fill="#fff68e"/><path d="m240 146.646v135h-45l-15-60 15-75z" fill="#5c5ccc"/><path d="m150 146.646h45v135h-45z" fill="#7288ff"/><path d="m240 101.646h90v180h-90z" fill="#d9225b"/><path d="m390 56.646v345h-195l-9.683-16.885 9.683-13.115h165v-285h-165l-9.683-13.115 9.683-16.885z" fill="#00337a"/><path d="m195 86.646v-30h-195v345h195v-30h-165v-285z" fill="#00429b"/></g></svg>